<?xml version="1.0"?>
<svg xmlns="http://www.w3.org/2000/svg" viewBox="0 0 512 512" width="512" height="512">
  <defs>
    <clipPath id="tile"><rect x="0" y="0" width="512" height="512" rx="96" ry="96"></rect></clipPath>
    <radialGradient id="bg" cx="50%" cy="42%" r="70%">
      <stop offset="0%" stop-color="#1A2230"></stop>
      <stop offset="55%" stop-color="#0B1019"></stop>
      <stop offset="100%" stop-color="#04070C"></stop>
    </radialGradient>
    <linearGradient id="topGloss" x1="0" y1="0" x2="0" y2="1">
      <stop offset="0%" stop-color="rgba(255,255,255,0.10)"></stop>
      <stop offset="45%" stop-color="rgba(255,255,255,0)"></stop>
    </linearGradient>
    <radialGradient id="haloA" cx="50%" cy="50%" r="50%">
      <stop offset="0%" stop-color="#FFE08A" stop-opacity="0.34"></stop>
      <stop offset="55%" stop-color="#FFE08A" stop-opacity="0.09"></stop>
      <stop offset="100%" stop-color="#FFE08A" stop-opacity="0"></stop>
    </radialGradient>
    <filter id="neon" x="-30%" y="-30%" width="160%" height="160%">
      <feGaussianBlur stdDeviation="3" result="b1"></feGaussianBlur>
      <feGaussianBlur stdDeviation="8" result="b2" in="SourceGraphic"></feGaussianBlur>
      <feMerge><feMergeNode in="b2"></feMergeNode><feMergeNode in="b1"></feMergeNode><feMergeNode in="SourceGraphic"></feMergeNode></feMerge>
    </filter>
    <filter id="softGlow" x="-50%" y="-50%" width="200%" height="200%">
      <feGaussianBlur stdDeviation="4"></feGaussianBlur>
      <feComponentTransfer><feFuncA type="linear" slope="1.4"></feFuncA></feComponentTransfer>
      <feComposite in2="SourceGraphic" operator="over"></feComposite>
    </filter>
  </defs>
  <g clip-path="url(#tile)">
    <rect width="512" height="512" fill="url(#bg)"></rect>
    <g fill="none" stroke="rgba(255,255,255,0.04)" stroke-width="1"><circle cx="256" cy="256" r="80"></circle><circle cx="256" cy="256" r="94"></circle><circle cx="256" cy="256" r="108"></circle><circle cx="256" cy="256" r="122"></circle><circle cx="256" cy="256" r="136"></circle><circle cx="256" cy="256" r="150"></circle><circle cx="256" cy="256" r="164"></circle><circle cx="256" cy="256" r="178"></circle><circle cx="256" cy="256" r="192"></circle><circle cx="256" cy="256" r="206"></circle><circle cx="256" cy="256" r="220"></circle><circle cx="256" cy="256" r="234"></circle><circle cx="256" cy="256" r="248"></circle><circle cx="256" cy="256" r="262"></circle><circle cx="256" cy="256" r="276"></circle><circle cx="256" cy="256" r="290"></circle><circle cx="256" cy="256" r="304"></circle><circle cx="256" cy="256" r="318"></circle><circle cx="256" cy="256" r="332"></circle><circle cx="256" cy="256" r="346"></circle><circle cx="256" cy="256" r="360"></circle><circle cx="256" cy="256" r="374"></circle></g>
    <circle cx="256" cy="256" r="256" fill="url(#haloA)"></circle>
    <rect width="512" height="200" fill="url(#topGloss)"></rect>
    <circle cx="256" cy="256" r="200" fill="none" stroke="#FFE08A" stroke-width="1" stroke-dasharray="2,6" opacity="0.5"></circle>
    <circle cx="256" cy="256" r="172" fill="none" stroke="#fff0bd" stroke-width="1" opacity="0.35"></circle>
    <g filter="url(#neon)" stroke="#FFE08A" stroke-width="6" fill="none" stroke-linecap="round" stroke-linejoin="round"><circle cx="232" cy="216" r="44"/><circle cx="232" cy="216" r="18"/><line x1="288" y1="216" x2="302" y2="216"/><line x1="271" y1="255" x2="281" y2="265"/><line x1="232" y1="272" x2="232" y2="286"/><line x1="193" y1="255" x2="183" y2="265"/><line x1="176" y1="216" x2="162" y2="216"/><line x1="193" y1="177" x2="183" y2="167"/><line x1="232" y1="160" x2="232" y2="146"/><line x1="271" y1="177" x2="281" y2="167"/><path d="M150 322 L256 304 L362 322 M150 322 L150 360 L256 342 L362 360 L362 322"/><path d="M256 304 L256 342"/></g>
    <ellipse cx="256" cy="470" rx="240" ry="14" fill="#FFE08A" opacity="0.08" filter="url(#softGlow)"></ellipse>
  </g>
  <rect x="0.5" y="0.5" width="511" height="511" rx="95.5" ry="95.5" fill="none" stroke="rgba(255,255,255,0.06)" stroke-width="1"></rect>
</svg>