<?xml version="1.0"?>
<svg xmlns="http://www.w3.org/2000/svg" viewBox="0 0 512 512" width="512" height="512">
  <defs>
    <clipPath id="tile"><rect x="0" y="0" width="512" height="512" rx="96" ry="96"></rect></clipPath>
    <radialGradient id="bg" cx="50%" cy="42%" r="70%">
      <stop offset="0%" stop-color="#1A2230"></stop>
      <stop offset="55%" stop-color="#0B1019"></stop>
      <stop offset="100%" stop-color="#04070C"></stop>
    </radialGradient>
    <linearGradient id="topGloss" x1="0" y1="0" x2="0" y2="1">
      <stop offset="0%" stop-color="rgba(255,255,255,0.10)"></stop>
      <stop offset="45%" stop-color="rgba(255,255,255,0)"></stop>
    </linearGradient>
    <radialGradient id="haloA" cx="50%" cy="50%" r="50%">
      <stop offset="0%" stop-color="#8B7CFF" stop-opacity="0.36"></stop>
      <stop offset="55%" stop-color="#8B7CFF" stop-opacity="0.10"></stop>
      <stop offset="100%" stop-color="#8B7CFF" stop-opacity="0"></stop>
    </radialGradient>
    <filter id="neon" x="-30%" y="-30%" width="160%" height="160%">
      <feGaussianBlur stdDeviation="3" result="b1"></feGaussianBlur>
      <feGaussianBlur stdDeviation="8" result="b2" in="SourceGraphic"></feGaussianBlur>
      <feMerge><feMergeNode in="b2"></feMergeNode><feMergeNode in="b1"></feMergeNode><feMergeNode in="SourceGraphic"></feMergeNode></feMerge>
    </filter>
    <filter id="softGlow" x="-50%" y="-50%" width="200%" height="200%">
      <feGaussianBlur stdDeviation="4"></feGaussianBlur>
      <feComponentTransfer><feFuncA type="linear" slope="1.4"></feFuncA></feComponentTransfer>
      <feComposite in2="SourceGraphic" operator="over"></feComposite>
    </filter>
  </defs>
  <g clip-path="url(#tile)">
    <rect width="512" height="512" fill="url(#bg)"></rect>
    <g fill="none" stroke="rgba(255,255,255,0.04)" stroke-width="1">
      <circle cx="256" cy="256" r="80"></circle><circle cx="256" cy="256" r="94"></circle><circle cx="256" cy="256" r="108"></circle><circle cx="256" cy="256" r="122"></circle><circle cx="256" cy="256" r="136"></circle><circle cx="256" cy="256" r="150"></circle><circle cx="256" cy="256" r="164"></circle><circle cx="256" cy="256" r="178"></circle><circle cx="256" cy="256" r="192"></circle><circle cx="256" cy="256" r="206"></circle><circle cx="256" cy="256" r="220"></circle><circle cx="256" cy="256" r="234"></circle><circle cx="256" cy="256" r="248"></circle><circle cx="256" cy="256" r="262"></circle><circle cx="256" cy="256" r="276"></circle><circle cx="256" cy="256" r="290"></circle><circle cx="256" cy="256" r="304"></circle><circle cx="256" cy="256" r="318"></circle><circle cx="256" cy="256" r="332"></circle><circle cx="256" cy="256" r="346"></circle><circle cx="256" cy="256" r="360"></circle><circle cx="256" cy="256" r="374"></circle>
    </g>
    <circle cx="256" cy="256" r="256" fill="url(#haloA)"></circle>
    <rect width="512" height="200" fill="url(#topGloss)"></rect>
    <circle cx="256" cy="256" r="200" fill="none" stroke="#8B7CFF" stroke-width="1" stroke-dasharray="2,6" opacity="0.5"></circle>
    <circle cx="256" cy="256" r="172" fill="none" stroke="#B5A8FF" stroke-width="1" opacity="0.35"></circle>
    
        <g filter="url(#neon)">
          <rect x="180" y="135" width="152" height="252" rx="32" fill="none" stroke="#8B7CFF" stroke-width="6"></rect>
          <rect x="194" y="160" width="124" height="190" rx="6" fill="none" stroke="#8B7CFF" stroke-width="3" opacity="0.6"></rect>
          
          <rect x="232" y="142" width="48" height="10" rx="5" fill="#8B7CFF" opacity="0.85"></rect>
          
          <rect x="232" y="370" width="48" height="3" rx="1.5" fill="#8B7CFF" opacity="0.85"></rect>
        </g>
        
        <g filter="url(#softGlow)">
          <rect x="205" y="180" width="32" height="32" rx="6" fill="#00A3E0" opacity="0.85"></rect>
          <rect x="240" y="180" width="32" height="32" rx="6" fill="#B5A8FF" opacity="0.85"></rect>
          <rect x="275" y="180" width="32" height="32" rx="6" fill="#5BD6A7" opacity="0.85"></rect>
          <rect x="205" y="222" width="32" height="32" rx="6" fill="#5BD6A7" opacity="0.55"></rect>
          <rect x="240" y="222" width="32" height="32" rx="6" fill="#00A3E0" opacity="0.55"></rect>
          <rect x="275" y="222" width="32" height="32" rx="6" fill="#B5A8FF" opacity="0.55"></rect>
        </g>
        
        <g stroke="#8B7CFF" stroke-width="3" opacity="0.7" filter="url(#softGlow)">
          <line x1="205" y1="275" x2="295" y2="275"></line>
          <line x1="205" y1="290" x2="270" y2="290"></line>
          <line x1="205" y1="305" x2="285" y2="305"></line>
          <line x1="205" y1="320" x2="255" y2="320"></line>
        </g>
    <ellipse cx="256" cy="470" rx="240" ry="14" fill="#8B7CFF" opacity="0.08" filter="url(#softGlow)"></ellipse>
  </g>
  <rect x="0.5" y="0.5" width="511" height="511" rx="95.5" ry="95.5" fill="none" stroke="rgba(255,255,255,0.06)" stroke-width="1"></rect>
</svg>